<mxfile host="app.diagrams.net" modified="2024-04-14T14:10:49.157Z" agent="Mozilla/5.0 (Windows NT 10.0; Win64; x64) AppleWebKit/537.36 (KHTML, like Gecko) Chrome/123.0.0.0 Safari/537.36" etag="b9_iEz2wWTylDvnPFV82" version="24.2.5" type="github">
  <diagram id="C5RBs43oDa-KdzZeNtuy" name="Page-1">
    <mxGraphModel dx="1050" dy="1734" grid="1" gridSize="10" guides="1" tooltips="1" connect="1" arrows="1" fold="1" page="1" pageScale="1" pageWidth="827" pageHeight="1169" math="0" shadow="0">
      <root>
        <mxCell id="WIyWlLk6GJQsqaUBKTNV-0" />
        <mxCell id="WIyWlLk6GJQsqaUBKTNV-1" parent="WIyWlLk6GJQsqaUBKTNV-0" />
        <mxCell id="3nqN2JQRwN8V4us5fP2g-0" value="USER" style="rounded=0;whiteSpace=wrap;html=1;" vertex="1" parent="WIyWlLk6GJQsqaUBKTNV-1">
          <mxGeometry x="350" y="-590" width="120" height="80" as="geometry" />
        </mxCell>
        <mxCell id="3nqN2JQRwN8V4us5fP2g-1" value="ADMIN" style="rounded=0;whiteSpace=wrap;html=1;" vertex="1" parent="WIyWlLk6GJQsqaUBKTNV-1">
          <mxGeometry x="160" y="-420" width="120" height="80" as="geometry" />
        </mxCell>
        <mxCell id="3nqN2JQRwN8V4us5fP2g-2" value="CUSTOMER" style="rounded=0;whiteSpace=wrap;html=1;" vertex="1" parent="WIyWlLk6GJQsqaUBKTNV-1">
          <mxGeometry x="540" y="-420" width="120" height="80" as="geometry" />
        </mxCell>
        <mxCell id="3nqN2JQRwN8V4us5fP2g-3" value="EMPLOYEE" style="rounded=0;whiteSpace=wrap;html=1;" vertex="1" parent="WIyWlLk6GJQsqaUBKTNV-1">
          <mxGeometry x="350" y="-420" width="120" height="80" as="geometry" />
        </mxCell>
        <mxCell id="3nqN2JQRwN8V4us5fP2g-4" value="EMPLOYEEADMIN&lt;div&gt;REQUESTS&lt;/div&gt;" style="rounded=0;whiteSpace=wrap;html=1;fontSize=12;" vertex="1" parent="WIyWlLk6GJQsqaUBKTNV-1">
          <mxGeometry x="250" y="-270" width="120" height="80" as="geometry" />
        </mxCell>
        <mxCell id="3nqN2JQRwN8V4us5fP2g-6" value="ADMINREQUESTS" style="rounded=0;whiteSpace=wrap;html=1;" vertex="1" parent="WIyWlLk6GJQsqaUBKTNV-1">
          <mxGeometry x="160" y="-120" width="120" height="80" as="geometry" />
        </mxCell>
        <mxCell id="3nqN2JQRwN8V4us5fP2g-7" value="CUSTOMER&lt;div&gt;REQUESTS&lt;/div&gt;" style="rounded=0;whiteSpace=wrap;html=1;" vertex="1" parent="WIyWlLk6GJQsqaUBKTNV-1">
          <mxGeometry x="540" y="-270" width="120" height="80" as="geometry" />
        </mxCell>
        <mxCell id="3nqN2JQRwN8V4us5fP2g-8" value="MYSQL&lt;div&gt;CONNECTION&lt;/div&gt;" style="rounded=0;whiteSpace=wrap;html=1;" vertex="1" parent="WIyWlLk6GJQsqaUBKTNV-1">
          <mxGeometry x="630" y="-130" width="120" height="80" as="geometry" />
        </mxCell>
        <mxCell id="3nqN2JQRwN8V4us5fP2g-9" value="STORESYSTEM" style="rounded=0;whiteSpace=wrap;html=1;" vertex="1" parent="WIyWlLk6GJQsqaUBKTNV-1">
          <mxGeometry x="310" y="40" width="120" height="80" as="geometry" />
        </mxCell>
        <mxCell id="3nqN2JQRwN8V4us5fP2g-10" value="CLIENT" style="rounded=0;whiteSpace=wrap;html=1;" vertex="1" parent="WIyWlLk6GJQsqaUBKTNV-1">
          <mxGeometry x="560" y="40" width="120" height="80" as="geometry" />
        </mxCell>
        <mxCell id="3nqN2JQRwN8V4us5fP2g-11" value="MYTHREAD" style="rounded=0;whiteSpace=wrap;html=1;" vertex="1" parent="WIyWlLk6GJQsqaUBKTNV-1">
          <mxGeometry x="440" y="220" width="120" height="80" as="geometry" />
        </mxCell>
        <mxCell id="3nqN2JQRwN8V4us5fP2g-12" value="SERVER" style="rounded=0;whiteSpace=wrap;html=1;" vertex="1" parent="WIyWlLk6GJQsqaUBKTNV-1">
          <mxGeometry x="440" y="390" width="120" height="80" as="geometry" />
        </mxCell>
        <mxCell id="3nqN2JQRwN8V4us5fP2g-14" value="" style="endArrow=classic;html=1;rounded=0;entryX=0.5;entryY=0;entryDx=0;entryDy=0;" edge="1" parent="WIyWlLk6GJQsqaUBKTNV-1" source="3nqN2JQRwN8V4us5fP2g-0" target="3nqN2JQRwN8V4us5fP2g-3">
          <mxGeometry width="50" height="50" relative="1" as="geometry">
            <mxPoint x="390" y="-330" as="sourcePoint" />
            <mxPoint x="440" y="-380" as="targetPoint" />
          </mxGeometry>
        </mxCell>
        <mxCell id="3nqN2JQRwN8V4us5fP2g-15" value="" style="endArrow=classic;html=1;rounded=0;exitX=0;exitY=0.5;exitDx=0;exitDy=0;entryX=0.5;entryY=0;entryDx=0;entryDy=0;" edge="1" parent="WIyWlLk6GJQsqaUBKTNV-1" source="3nqN2JQRwN8V4us5fP2g-0" target="3nqN2JQRwN8V4us5fP2g-1">
          <mxGeometry width="50" height="50" relative="1" as="geometry">
            <mxPoint x="390" y="-330" as="sourcePoint" />
            <mxPoint x="440" y="-380" as="targetPoint" />
            <Array as="points">
              <mxPoint x="220" y="-550" />
            </Array>
          </mxGeometry>
        </mxCell>
        <mxCell id="3nqN2JQRwN8V4us5fP2g-16" value="" style="endArrow=classic;html=1;rounded=0;entryX=0.5;entryY=0;entryDx=0;entryDy=0;exitX=1;exitY=0.5;exitDx=0;exitDy=0;" edge="1" parent="WIyWlLk6GJQsqaUBKTNV-1" source="3nqN2JQRwN8V4us5fP2g-0" target="3nqN2JQRwN8V4us5fP2g-2">
          <mxGeometry width="50" height="50" relative="1" as="geometry">
            <mxPoint x="390" y="-330" as="sourcePoint" />
            <mxPoint x="440" y="-380" as="targetPoint" />
            <Array as="points">
              <mxPoint x="600" y="-550" />
            </Array>
          </mxGeometry>
        </mxCell>
        <mxCell id="3nqN2JQRwN8V4us5fP2g-17" value="" style="endArrow=classic;html=1;rounded=0;exitX=0.5;exitY=1;exitDx=0;exitDy=0;entryX=0.25;entryY=0;entryDx=0;entryDy=0;" edge="1" parent="WIyWlLk6GJQsqaUBKTNV-1" source="3nqN2JQRwN8V4us5fP2g-1" target="3nqN2JQRwN8V4us5fP2g-4">
          <mxGeometry width="50" height="50" relative="1" as="geometry">
            <mxPoint x="390" y="-330" as="sourcePoint" />
            <mxPoint x="440" y="-380" as="targetPoint" />
            <Array as="points">
              <mxPoint x="220" y="-300" />
              <mxPoint x="280" y="-300" />
            </Array>
          </mxGeometry>
        </mxCell>
        <mxCell id="3nqN2JQRwN8V4us5fP2g-18" value="" style="endArrow=classic;html=1;rounded=0;exitX=0.5;exitY=1;exitDx=0;exitDy=0;entryX=0.75;entryY=0;entryDx=0;entryDy=0;" edge="1" parent="WIyWlLk6GJQsqaUBKTNV-1" source="3nqN2JQRwN8V4us5fP2g-3" target="3nqN2JQRwN8V4us5fP2g-4">
          <mxGeometry width="50" height="50" relative="1" as="geometry">
            <mxPoint x="390" y="-330" as="sourcePoint" />
            <mxPoint x="440" y="-380" as="targetPoint" />
            <Array as="points">
              <mxPoint x="410" y="-300" />
              <mxPoint x="340" y="-300" />
            </Array>
          </mxGeometry>
        </mxCell>
        <mxCell id="3nqN2JQRwN8V4us5fP2g-19" value="" style="endArrow=classic;html=1;rounded=0;entryX=0.5;entryY=0;entryDx=0;entryDy=0;exitX=0.5;exitY=1;exitDx=0;exitDy=0;" edge="1" parent="WIyWlLk6GJQsqaUBKTNV-1" source="3nqN2JQRwN8V4us5fP2g-2" target="3nqN2JQRwN8V4us5fP2g-7">
          <mxGeometry width="50" height="50" relative="1" as="geometry">
            <mxPoint x="390" y="-220" as="sourcePoint" />
            <mxPoint x="440" y="-270" as="targetPoint" />
          </mxGeometry>
        </mxCell>
        <mxCell id="3nqN2JQRwN8V4us5fP2g-20" value="" style="endArrow=classic;html=1;rounded=0;entryX=0.5;entryY=0;entryDx=0;entryDy=0;exitX=0.5;exitY=1;exitDx=0;exitDy=0;" edge="1" parent="WIyWlLk6GJQsqaUBKTNV-1" source="3nqN2JQRwN8V4us5fP2g-4" target="3nqN2JQRwN8V4us5fP2g-6">
          <mxGeometry width="50" height="50" relative="1" as="geometry">
            <mxPoint x="390" y="-60" as="sourcePoint" />
            <mxPoint x="440" y="-110" as="targetPoint" />
            <Array as="points">
              <mxPoint x="310" y="-160" />
              <mxPoint x="220" y="-160" />
            </Array>
          </mxGeometry>
        </mxCell>
        <mxCell id="3nqN2JQRwN8V4us5fP2g-21" value="" style="endArrow=classic;html=1;rounded=0;entryX=0;entryY=0.5;entryDx=0;entryDy=0;exitX=0.5;exitY=1;exitDx=0;exitDy=0;" edge="1" parent="WIyWlLk6GJQsqaUBKTNV-1" source="3nqN2JQRwN8V4us5fP2g-6" target="3nqN2JQRwN8V4us5fP2g-9">
          <mxGeometry width="50" height="50" relative="1" as="geometry">
            <mxPoint x="390" y="20" as="sourcePoint" />
            <mxPoint x="440" y="-30" as="targetPoint" />
            <Array as="points">
              <mxPoint x="220" y="80" />
            </Array>
          </mxGeometry>
        </mxCell>
        <mxCell id="3nqN2JQRwN8V4us5fP2g-22" value="" style="endArrow=classic;html=1;rounded=0;entryX=0.25;entryY=0;entryDx=0;entryDy=0;exitX=0.75;exitY=1;exitDx=0;exitDy=0;" edge="1" parent="WIyWlLk6GJQsqaUBKTNV-1" source="3nqN2JQRwN8V4us5fP2g-4" target="3nqN2JQRwN8V4us5fP2g-9">
          <mxGeometry width="50" height="50" relative="1" as="geometry">
            <mxPoint x="390" y="20" as="sourcePoint" />
            <mxPoint x="440" y="-30" as="targetPoint" />
          </mxGeometry>
        </mxCell>
        <mxCell id="3nqN2JQRwN8V4us5fP2g-23" value="" style="endArrow=classic;html=1;rounded=0;exitX=0;exitY=0.5;exitDx=0;exitDy=0;entryX=0.75;entryY=0;entryDx=0;entryDy=0;" edge="1" parent="WIyWlLk6GJQsqaUBKTNV-1" source="3nqN2JQRwN8V4us5fP2g-7" target="3nqN2JQRwN8V4us5fP2g-9">
          <mxGeometry width="50" height="50" relative="1" as="geometry">
            <mxPoint x="390" y="20" as="sourcePoint" />
            <mxPoint x="440" y="-30" as="targetPoint" />
            <Array as="points">
              <mxPoint x="400" y="-230" />
            </Array>
          </mxGeometry>
        </mxCell>
        <mxCell id="3nqN2JQRwN8V4us5fP2g-24" value="" style="endArrow=classic;html=1;rounded=0;exitX=0;exitY=0.5;exitDx=0;exitDy=0;entryX=1;entryY=0;entryDx=0;entryDy=0;" edge="1" parent="WIyWlLk6GJQsqaUBKTNV-1" source="3nqN2JQRwN8V4us5fP2g-8" target="3nqN2JQRwN8V4us5fP2g-9">
          <mxGeometry width="50" height="50" relative="1" as="geometry">
            <mxPoint x="390" y="20" as="sourcePoint" />
            <mxPoint x="440" y="-30" as="targetPoint" />
            <Array as="points">
              <mxPoint x="430" y="-90" />
            </Array>
          </mxGeometry>
        </mxCell>
        <mxCell id="3nqN2JQRwN8V4us5fP2g-25" value="" style="endArrow=classic;html=1;rounded=0;exitX=0;exitY=0.5;exitDx=0;exitDy=0;entryX=0.75;entryY=0;entryDx=0;entryDy=0;" edge="1" parent="WIyWlLk6GJQsqaUBKTNV-1" source="3nqN2JQRwN8V4us5fP2g-10" target="3nqN2JQRwN8V4us5fP2g-11">
          <mxGeometry width="50" height="50" relative="1" as="geometry">
            <mxPoint x="390" y="20" as="sourcePoint" />
            <mxPoint x="440" y="-30" as="targetPoint" />
            <Array as="points">
              <mxPoint x="530" y="80" />
            </Array>
          </mxGeometry>
        </mxCell>
        <mxCell id="3nqN2JQRwN8V4us5fP2g-26" value="" style="endArrow=classic;html=1;rounded=0;entryX=0.25;entryY=0;entryDx=0;entryDy=0;exitX=1;exitY=0.5;exitDx=0;exitDy=0;" edge="1" parent="WIyWlLk6GJQsqaUBKTNV-1" source="3nqN2JQRwN8V4us5fP2g-9" target="3nqN2JQRwN8V4us5fP2g-11">
          <mxGeometry width="50" height="50" relative="1" as="geometry">
            <mxPoint x="390" y="260" as="sourcePoint" />
            <mxPoint x="440" y="210" as="targetPoint" />
            <Array as="points">
              <mxPoint x="470" y="80" />
            </Array>
          </mxGeometry>
        </mxCell>
        <mxCell id="3nqN2JQRwN8V4us5fP2g-27" value="" style="endArrow=classic;html=1;rounded=0;entryX=0.5;entryY=0;entryDx=0;entryDy=0;exitX=0.5;exitY=1;exitDx=0;exitDy=0;" edge="1" parent="WIyWlLk6GJQsqaUBKTNV-1" source="3nqN2JQRwN8V4us5fP2g-11" target="3nqN2JQRwN8V4us5fP2g-12">
          <mxGeometry width="50" height="50" relative="1" as="geometry">
            <mxPoint x="390" y="260" as="sourcePoint" />
            <mxPoint x="440" y="210" as="targetPoint" />
          </mxGeometry>
        </mxCell>
      </root>
    </mxGraphModel>
  </diagram>
</mxfile>
